<svg xmlns="http://www.w3.org/2000/svg" width="62.714" height="53.637">
  <g fill="none" transform="translate(3.333 -3.26)">
    <path stroke="#ff1158" d="M15.203 23.165c.292.434-.441.608-.722.486-.76-.332-.69-1.375-.25-1.93.785-.992 2.292-.832 3.137-.015 1.24 1.2.982 3.224-.22 4.346-1.604 1.495-4.16 1.134-5.554-.457-1.754-2.002-1.289-5.098.692-6.761 2.399-2.015 6.038-1.444 7.97.928 2.276 2.795 1.599 6.979-1.164 9.177-3.19 2.539-7.92 1.756-10.386-1.4-2.801-3.584-1.912-8.861 1.635-11.593 3.98-3.064 9.804-2.068 12.802 1.871 3.328 4.373 2.225 10.746-2.107 14.01" transform="matrix(2.02917 0 0 1.90374 -4.537 -11.386)"/>
    <ellipse cx="27.163" cy="31.754" stroke="#fff" stroke-width="2.991" rx="20.94" ry="19.907"/>
  </g>
</svg>
