<svg xmlns="http://www.w3.org/2000/svg" xmlns:xlink="http://www.w3.org/1999/xlink" width="64" height="64" viewBox="0 0 640 640"><defs><path id="a" d="M490.3 256.8c0 112.4-93.5 203.7-208.6 203.7S73.1 369.2 73.1 256.8C73 144.3 166.6 53 281.7 53s208.6 91.3 208.6 203.8z"/><mask id="b" width="497.2" height="487.5" x="33.1" y="13" maskUnits="userSpaceOnUse"><path fill="#fff" d="M33.1 13h497.2v487.5H33.1z"/><use xlink:href="#a"/></mask><path id="c" d="M527 255c0 133.1-110.6 241.2-246.8 241.2-136.3 0-246.9-108-246.9-241.2C33.3 122 144 14 280.2 14 416.4 14 527 122 527 255z"/><path id="d" d="M595.9 594.8c2 2.4 1.6 6-.9 8l-37.5 29.6a6 6 0 0 1-8.2-1 1957571 1957571 0 0 0-135.6-163.8c-2-2.5-1.6-6 .9-8L452 430c2.5-2 6.1-1.6 8.2.9l135.6 163.9z"/></defs><g mask="url(#b)"><use fill-opacity="0" stroke="#000" stroke-width="40" xlink:href="#a"/></g><use fill-opacity="0" stroke="#000" stroke-width="5" xlink:href="#c"/><use fill-opacity="0" stroke="#000" stroke-width="5" xlink:href="#d"/></svg>