<svg xmlns="http://www.w3.org/2000/svg" width="32" height="32">
  <path fill="#FFF" d="M14.63 16.8h-.09z"/>
  <path fill="#FFF" d="M13.08 1A11.97 11.97 0 0 0 1.11 12.97a11.97 11.97 0 0 0 11.97 11.98 11.97 11.97 0 0 0 11.97-11.98A11.97 11.97 0 0 0 13.08 1zm.12 2.01a10.6 10.6 0 0 1 7.6 3.77c6.9 7.43-2.89 19.77-12.18 15.38-10.04-3.4-7.18-19 3.32-19.13.42-.03.84-.04 1.26-.02z"/>
  <path fill="none" stroke="#FFF" stroke-width="1.8" d="M18.56 23.03l2.62 5.22c.6 1.21.83 1.64 1.75 1.16s2.54-1.86 3.22-2.65c.68-.8.41-1-.62-1.8l-4.63-3.52"/>
</svg>

