<?xml version="1.0" encoding="UTF-8" standalone="no"?>
<!DOCTYPE svg PUBLIC "-//W3C//DTD SVG 1.1//EN" "http://www.w3.org/Graphics/SVG/1.1/DTD/svg11.dtd">
<svg version="1.1" xmlns="http://www.w3.org/2000/svg" xmlns:xlink="http://www.w3.org/1999/xlink" preserveAspectRatio="xMidYMid meet" viewBox="0 0 640 640" width="64" height="64"><defs><path d="M490.31 256.76C490.31 369.22 396.83 460.52 281.7 460.52C166.56 460.52 73.09 369.22 73.09 256.76C73.09 144.3 166.56 53 281.7 53C396.83 53 490.31 144.3 490.31 256.76Z" id="crGAZZZ2N"></path><mask id="maske1k9AzkXZG" x="33.09" y="13" width="497.22" height="487.52" maskUnits="userSpaceOnUse"><rect x="33.09" y="13" width="497.22" height="487.52" fill="white"></rect><use xlink:href="#crGAZZZ2N" opacity="1" fill="black"></use></mask><path d="M527.05 255.04C527.05 388.12 416.43 496.17 280.18 496.17C143.93 496.17 33.31 388.12 33.31 255.04C33.31 121.96 143.93 13.91 280.18 13.91C416.43 13.91 527.05 121.96 527.05 255.04Z" id="f4xzFwxBCc"></path><path d="M595.87 594.77C597.89 597.21 597.51 600.83 595.02 602.79C586.62 609.42 565.94 625.74 557.54 632.37C555.02 634.35 551.38 633.97 549.33 631.49C521.48 597.82 441.6 501.25 413.74 467.58C411.73 465.14 412.11 461.52 414.59 459.56C423 452.93 443.67 436.61 452.08 429.98C454.59 427.99 458.24 428.38 460.28 430.85C488.14 464.52 568.02 561.09 595.87 594.77Z" id="abBmRzVe9"></path></defs><g><g><g><g mask="url(#maske1k9AzkXZG)"><use xlink:href="#crGAZZZ2N" opacity="1" fill-opacity="0" stroke="#000000" stroke-width="40" stroke-opacity="1"></use></g></g><g><g><use xlink:href="#f4xzFwxBCc" opacity="1" fill-opacity="0" stroke="#000000" stroke-width="5" stroke-opacity="1"></use></g></g><g><g><use xlink:href="#abBmRzVe9" opacity="1" fill-opacity="0" stroke="#000000" stroke-width="5" stroke-opacity="1"></use></g></g></g></g></svg>